<svg width="85" height="85" viewBox="0 0 85 85" fill="none" xmlns="http://www.w3.org/2000/svg">
<path d="M40.8126 73.9862C48.1926 73.9846 55.3599 71.5141 61.1733 66.9678L70.5736 75.7368L76.4527 69.8577L67.0524 61.0887C71.601 55.2747 74.0731 48.1057 74.0749 40.7239C74.0749 22.3839 59.1526 7.46155 40.8126 7.46155C22.4726 7.46155 7.55029 22.3839 7.55029 40.7239C7.55029 59.0639 22.4726 73.9862 40.8126 73.9862ZM40.8126 15.7771C54.5707 15.7771 65.7593 26.9657 65.7593 40.7239C65.7593 54.482 54.5707 65.6706 40.8126 65.6706C27.0545 65.6706 15.8659 54.482 15.8659 40.7239C15.8659 26.9657 27.0545 15.7771 40.8126 15.7771Z" fill="#A7A7A7"/>
</svg>
